<?xml version="1.0" encoding="UTF-8" standalone="no"?>
<svg
   xmlns:dc="http://purl.org/dc/elements/1.1/"
   xmlns:cc="http://creativecommons.org/ns#"
   xmlns:rdf="http://www.w3.org/1999/02/22-rdf-syntax-ns#"
   xmlns:svg="http://www.w3.org/2000/svg"
   xmlns="http://www.w3.org/2000/svg"
   xmlns:sodipodi="http://sodipodi.sourceforge.net/DTD/sodipodi-0.dtd"
   xmlns:inkscape="http://www.inkscape.org/namespaces/inkscape"
   height="18"
   viewBox="0 0 24 24"
   width="18"
   version="1.1"
   id="svg3"
   sodipodi:docname="copyURLGistIcon.svg"
   style="fill:#000000"
   inkscape:version="0.92.2 (5c3e80d, 2017-08-06)">
  <metadata
     id="metadata9">
    <rdf:RDF>
      <cc:Work
         rdf:about="">
        <dc:format>image/svg+xml</dc:format>
        <dc:type
           rdf:resource="http://purl.org/dc/dcmitype/StillImage" />
        <dc:title></dc:title>
      </cc:Work>
    </rdf:RDF>
  </metadata>
  <defs
     id="defs7" />
  <sodipodi:namedview
     pagecolor="#ffffff"
     bordercolor="#666666"
     borderopacity="1"
     objecttolerance="10"
     gridtolerance="10"
     guidetolerance="10"
     inkscape:pageopacity="0"
     inkscape:pageshadow="2"
     inkscape:window-width="2293"
     inkscape:window-height="1284"
     id="namedview5"
     showgrid="false"
     fit-margin-top="1"
     fit-margin-left="1"
     fit-margin-right="1"
     fit-margin-bottom="1"
     inkscape:zoom="13.111111"
     inkscape:cx="28.629826"
     inkscape:cy="11.701408"
     inkscape:window-x="179"
     inkscape:window-y="51"
     inkscape:window-maximized="0"
     inkscape:current-layer="svg3" />
  <rect
     style="color:#000000;overflow:visible;opacity:1;fill:none;fill-opacity:1;stroke:#616161;stroke-width:1.93939376;stroke-linejoin:round;stroke-miterlimit:4;stroke-dasharray:none;stroke-opacity:1;paint-order:markers fill stroke"
     id="rect812"
     width="19.39394"
     height="19.39394"
     x="2.3030303"
     y="2.3030303" />
  <path
     inkscape:connector-curvature="0"
     d="m 5.7922885,12.000001 c 0,-1.310517 1.0652737,-2.3757921 2.3757906,-2.3757921 H 11.233616 V 8.1680795 H 8.1680791 c -2.1152203,0 -3.831921,1.7167014 -3.831921,3.8319215 0,2.115221 1.7167007,3.83192 3.831921,3.83192 H 11.233616 V 14.375792 H 8.1680791 c -1.3105169,0 -2.3757906,-1.065274 -2.3757906,-2.375791 z m 3.1421746,0.766384 H 15.065537 V 11.233617 H 8.9344631 Z M 15.831921,8.1680795 h -3.065537 v 1.4561294 h 3.065537 c 1.310516,0 2.375791,1.0652751 2.375791,2.3757921 0,1.310517 -1.065275,2.375791 -2.375791,2.375791 h -3.065537 v 1.456129 h 3.065537 c 2.11522,0 3.831921,-1.716699 3.831921,-3.83192 0,-2.1152201 -1.716701,-3.8319215 -3.831921,-3.8319215 z"
     id="path4-3"
     style="stroke-width:0.76638418;fill:#616161;fill-opacity:1" />
</svg>
